Coordinates
version=1
nRows=38
nColumns=12
inDegrees=yes

Units are S.I. units (second, meters, Newtons, ...)
Angles are in degrees

endheader
time	SC_y	SC_z	SC_x	AC_y	AC_z	AC_x	GH_y	GH_z	GH_yy	EL_x	PS_y
       0.0              -47.07         0.6639          71.23          47.81         -16.88          8.514         -44.99          35.59         -165.3           23.0          152.1
   0.01154              -47.07         0.6693          71.22          47.81         -16.87          8.511         -44.96           35.6         -165.3           23.0          152.0
   0.02309              -47.07         0.6751          71.21           47.8         -16.87          8.509         -44.93           35.6         -165.2          23.01          152.0
   0.03463              -47.07         0.6812           71.2           47.8         -16.87          8.506          -44.9          35.61         -165.2          23.01          152.0
   0.04617              -47.07         0.6877          71.19           47.8         -16.86          8.503         -44.87          35.61         -165.2          23.01          152.0
   0.05771              -47.07         0.6946          71.18           47.8         -16.86            8.5         -44.84          35.62         -165.1          23.01          152.0
   0.06926              -47.07         0.7021          71.17          47.79         -16.86          8.497          -44.8          35.63         -165.1          23.01          152.0
    0.0808              -47.07           0.71          71.16          47.79         -16.85          8.493         -44.76          35.64         -165.1          23.02          152.0
   0.09234              -47.07         0.7185          71.15          47.79         -16.85          8.489         -44.72          35.65         -165.0          23.02          152.0
    0.1039              -47.07         0.7276          71.14          47.78         -16.84          8.485         -44.67          35.65         -165.0          23.02          152.0
    0.1154              -47.07         0.7373          71.12          47.78         -16.84          8.481         -44.63          35.66         -164.9          23.02          151.9
     0.127              -47.06         0.7478          71.11          47.78         -16.83          8.476         -44.57          35.67         -164.9          23.03          151.9
    0.1385              -47.06         0.7592          71.09          47.77         -16.83          8.471         -44.52          35.69         -164.8          23.03          151.9
    0.1501              -47.06         0.7714          71.07          47.77         -16.82          8.465         -44.46           35.7         -164.8          23.03          151.9
    0.1616              -47.06         0.7847          71.05          47.76         -16.82          8.459         -44.39          35.71         -164.7          23.04          151.9
    0.1731              -47.06         0.7991          71.03          47.76         -16.81          8.453         -44.32          35.73         -164.6          23.04          151.9
    0.1847              -47.06         0.8147          71.01          47.75          -16.8          8.446         -44.24          35.74         -164.5          23.05          151.8
    0.1962              -47.06         0.8317          70.98          47.75         -16.79          8.438         -44.16          35.76         -164.5          23.05          151.8
    0.2078              -47.06         0.8503          70.96          47.74         -16.78           8.43         -44.07          35.78         -164.4          23.06          151.8
    0.2193              -47.06         0.8706          70.93          47.73         -16.77          8.421         -43.97           35.8         -164.3          23.06          151.7
    0.2309              -47.06          0.893          70.89          47.72         -16.76          8.411         -43.86          35.82         -164.2          23.07          151.7
    0.2424              -47.06         0.9176          70.86          47.71         -16.75            8.4         -43.74          35.84         -164.0          23.08          151.7
    0.2539              -47.06         0.9447          70.82           47.7         -16.73          8.387          -43.6          35.87         -163.9          23.09          151.6
    0.2655              -47.06         0.9748          70.77          47.69         -16.72          8.374         -43.45           35.9         -163.7           23.1          151.6
     0.277              -47.06          1.008          70.72          47.68          -16.7          8.359         -43.29          35.93         -163.6          23.11          151.5
    0.2886              -47.06          1.046          70.67          47.67         -16.68          8.342         -43.11          35.97         -163.4          23.12          151.5
    0.3001              -47.06          1.087          70.61          47.65         -16.66          8.323          -42.9          36.01         -163.2          23.13          151.4
    0.3116              -47.06          1.134          70.54          47.63         -16.64          8.302         -42.67          36.06         -162.9          23.14          151.4
    0.3232              -47.06          1.188          70.46          47.61         -16.61          8.278         -42.41          36.11         -162.7          23.16          151.3
    0.3347              -47.05          1.248          70.37          47.59         -16.58          8.251         -42.11          36.17         -162.4          23.18          151.2
    0.3463              -47.05          1.317          70.27          47.57         -16.55           8.22         -41.77          36.24         -162.0           23.2          151.1
    0.3578              -47.05          1.396          70.16          47.54         -16.51          8.185         -41.38          36.32         -161.6          23.22          151.0
    0.3694              -47.05          1.487          70.02           47.5         -16.46          8.143         -40.93          36.41         -161.2          23.25          150.8
    0.3809              -47.05          1.593          69.87          47.47          -16.4          8.096          -40.4          36.51         -160.6          23.28          150.7
    0.3924              -47.04          1.717          69.69          47.42         -16.34           8.04         -39.79          36.64         -160.0          23.32          150.5
     0.404              -47.04          1.864          69.47          47.37         -16.27          7.974         -39.07          36.78         -159.3          23.36          150.3
    0.4155              -47.04          2.037          69.22           47.3         -16.18          7.896         -38.21          36.95         -158.4          23.41          150.0
    0.4271              -47.03          2.246          68.91          47.22         -16.07          7.802         -37.18          37.16         -157.3          23.48          149.7
